HIERARCHY
ROOT reference
{
  OFFSET 0 0 0
  CHANNELS 6 Xposition Yposition Zposition Zrotation Xrotation Yrotation
  JOINT Hips
  {
    OFFSET -38.8236 71.8932 -181.857
    CHANNELS 6 Xposition Yposition Zposition Zrotation Xrotation Yrotation
    JOINT Spine
    {
      OFFSET 0 7.31558 0
      CHANNELS 6 Xposition Yposition Zposition Zrotation Xrotation Yrotation
      JOINT Spine1
      {
        OFFSET 0 21.7428 0
        CHANNELS 6 Xposition Yposition Zposition Zrotation Xrotation Yrotation
        JOINT Neck
        {
          OFFSET 0 21.6535 1.9685
          CHANNELS 6 Xposition Yposition Zposition Zrotation Xrotation Yrotation
          JOINT Head
          {
            OFFSET 0 12.49 -1.78429
            CHANNELS 6 Xposition Yposition Zposition Zrotation Xrotation Yrotation
            End Site
            {
              OFFSET 0 22.3036 0
            }
          }
        }
        JOINT LeftShoulder
        {
          OFFSET 3.56546 21.4407 -0.045508
          CHANNELS 6 Xposition Yposition Zposition Zrotation Xrotation Yrotation
          JOINT LeftArm
          {
            OFFSET 5.86532 0 0
            CHANNELS 6 Xposition Yposition Zposition Zrotation Xrotation Yrotation
            JOINT LeftForeArm
            {
              OFFSET 30.0831 0 0
              CHANNELS 6 Xposition Yposition Zposition Zrotation Xrotation Yrotation
              JOINT LeftHand
              {
                OFFSET 21.3133 0 0
                CHANNELS 6 Xposition Yposition Zposition Zrotation Xrotation Yrotation
                End Site
                {
                  OFFSET 13.3822 0 0
                }
              }
            }
          }
        }
        JOINT RightShoulder
        {
          OFFSET -3.55605 21.4407 -0.045508
          CHANNELS 6 Xposition Yposition Zposition Zrotation Xrotation Yrotation
          JOINT RightArm
          {
            OFFSET -5.86532 0 0
            CHANNELS 6 Xposition Yposition Zposition Zrotation Xrotation Yrotation
            JOINT RightForeArm
            {
              OFFSET -30.0831 0 0
              CHANNELS 6 Xposition Yposition Zposition Zrotation Xrotation Yrotation
              JOINT RightHand
              {
                OFFSET -21.3133 0 0
                CHANNELS 6 Xposition Yposition Zposition Zrotation Xrotation Yrotation
                End Site
                {
                  OFFSET -13.3822 0 0
                }
              }
            }
          }
        }
      }
    }
    JOINT LeftUpLeg
    {
      OFFSET 8.92144 0 0
      CHANNELS 6 Xposition Yposition Zposition Zrotation Xrotation Yrotation
      JOINT LeftLeg
      {
        OFFSET 0 -39.6329 0
        CHANNELS 6 Xposition Yposition Zposition Zrotation Xrotation Yrotation
        JOINT LeftFoot
        {
          OFFSET 0 -38.0584 0
          CHANNELS 6 Xposition Yposition Zposition Zrotation Xrotation Yrotation
          JOINT LeftToeBase
          {
            OFFSET 0 -5.79894 13.3822
            CHANNELS 6 Xposition Yposition Zposition Zrotation Xrotation Yrotation
            End Site
            {
              OFFSET 0 0 3.56858
            }
          }
        }
      }
    }
    JOINT RightUpLeg
    {
      OFFSET -8.92144 0 0
      CHANNELS 6 Xposition Yposition Zposition Zrotation Xrotation Yrotation
      JOINT RightLeg
      {
        OFFSET 0 -39.6329 0
        CHANNELS 6 Xposition Yposition Zposition Zrotation Xrotation Yrotation
        JOINT RightFoot
        {
          OFFSET 0 -38.0584 0
          CHANNELS 6 Xposition Yposition Zposition Zrotation Xrotation Yrotation
          JOINT RightToeBase
          {
            OFFSET 0 -5.79894 13.3822
            CHANNELS 6 Xposition Yposition Zposition Zrotation Xrotation Yrotation
            End Site
            {
              OFFSET 0 0 3.56858
            }
          }
        }
      }
    }
  }
}
MOTION
Frames:	6
Frame Time:	0.004
0 0 0 0 0 -0 -151.269 79.1991 -59.5336 -9.21007 -4.75962 -177.462 0 7.31558 0 -6.23338 -4.24842 5.49938 0 21.7428 0 0.939484 1.7516 5.71653 0 21.6535 1.9685 -5.05718 15.1809 -17.5938 0 12.49 -1.78429 15.0392 -3.30754 -15.7636 3.56546 21.4407 -0.045508 -3.21097 10.8217 -7.61966 5.86532 0 7.10543e-015 -73.3705 49.8256 27.2504 30.0831 0 -2.84217e-014 40.7783 -35.489 -66.1692 21.3133 0 0 -20.1057 -8.5618 -6.15391 -3.55605 21.4407 -0.045508 6.27831 9.74276 -3.70494 -5.86532 1.42109e-014 1.42109e-014 33.1582 60.2914 15.5267 -30.0831 0 -7.10543e-015 -24.9976 -33.0891 91.8294 -21.3133 1.42109e-014 -4.26326e-014 -2.52816 -8.50885 6.21214 8.92144 -7.10543e-015 7.10543e-015 5.57267 -25.0062 -5.59621 0 -39.6329 0 -0.234693 14.788 5.64376 0 -38.0584 -1.42109e-014 -21.7284 11.9118 6.98181 -2.84217e-014 -5.79894 13.3822 0 0 -1.59028e-015 -8.92144 -7.10543e-015 7.10543e-015 2.46097 21.929 -4.0332 0 -39.6329 0 2.74681 23.5657 1.31889 -2.84217e-014 -38.0584 -3.55271e-015 1.10543 19.818 -5.90181 0 -5.79894 13.3822 -7.95139e-016 0 -0 
0 0 0 0 0 -0 -151.385 79.1065 -60.3747 -9.09758 -4.82107 -177.604 2.84217e-014 7.31558 -7.10543e-015 -6.19655 -4.36448 5.39899 -2.84217e-014 21.7428 -1.42109e-014 0.943747 1.68057 5.62158 2.84217e-014 21.6535 1.9685 -4.88608 15.0139 -17.5093 0 12.49 -1.78429 14.8734 -3.16581 -15.7148 3.56546 21.4407 -0.045508 -3.00141 10.6192 -7.62478 5.86532 -2.84217e-014 0 -73.4299 49.8426 27.3105 30.0831 0 2.84217e-014 41.2731 -35.4933 -65.6333 21.3133 2.84217e-014 1.42109e-014 -20.3691 -8.4405 -6.30475 -3.55605 21.4407 -0.045508 6.27269 9.72215 -3.76804 -5.86532 -1.42109e-014 0 33.3343 60.2806 15.3197 -30.0831 1.42109e-014 7.10543e-015 -24.4772 -32.8325 92.3016 -21.3133 0 0 -2.43855 -8.56638 6.16561 8.92144 -1.42109e-014 0 5.72341 -24.9811 -5.52813 2.84217e-014 -39.6329 0 -0.31177 14.3253 5.96271 2.84217e-014 -38.0584 0 -22.6928 12.2782 7.01566 -2.84217e-014 -5.79894 13.3822 9.93923e-016 -7.95139e-016 -0 -8.92144 7.10543e-015 -7.10543e-015 2.54622 21.5427 -4.38643 -2.84217e-014 -39.6329 -7.10543e-015 2.56527 24.8152 0.912764 2.84217e-014 -38.0584 3.55271e-015 1.02303 19.7463 -6.01565 -2.84217e-014 -5.79894 13.3822 1.10348e-032 3.18055e-015 -1.98785e-016 
0 0 0 0 0 -0 -151.493 78.9881 -61.2219 -8.96122 -4.82665 -177.769 -2.84217e-014 7.31558 0 -6.14117 -4.48407 5.32688 2.84217e-014 21.7428 0 0.981066 1.69126 5.55315 0 21.6535 1.9685 -4.74462 14.9771 -17.4804 0 12.49 -1.78429 14.7898 -3.2009 -15.6937 3.56546 21.4407 -0.045508 -3.01498 10.6829 -7.66546 5.86532 2.84217e-014 0 -73.0338 49.8739 27.0769 30.0831 0 2.84217e-014 41.8709 -35.6218 -64.9759 21.3133 -2.84217e-014 -1.42109e-014 -20.6495 -8.44784 -6.54076 -3.55605 21.4407 -0.045508 6.24712 9.54747 -3.8354 -5.86532 0 0 33.9715 60.4192 14.6218 -30.0831 0 7.10543e-015 -24.3742 -32.8424 92.2826 -21.3133 0 -1.42109e-014 -1.31085 -8.65369 7.05149 8.92144 0 0 5.9297 -24.9196 -5.35356 0 -39.6329 -1.42109e-014 -0.42245 14.0776 6.10906 0 -38.0584 0 -22.9427 12.4838 7.00489 5.68434e-014 -5.79894 13.3822 -2.20695e-032 7.95139e-016 1.59028e-015 -8.92144 -7.10543e-015 0 2.66539 21.0823 -4.35645 0 -39.6329 0 2.50529 26.3194 0.415177 -2.84217e-014 -38.0584 5.32907e-015 1.78725 19.6582 -6.77834 -2.84217e-014 -5.79894 13.3822 -7.95139e-016 0 -7.95139e-016 
0 0 0 0 0 -0 -151.599 78.8567 -62.048 -8.83205 -4.8348 -177.916 0 7.31558 7.10543e-015 -6.08703 -4.52674 5.18996 -2.84217e-014 21.7428 0 1.00923 1.57909 5.41694 0 21.6535 1.9685 -4.40923 15.0977 -17.4052 0 12.49 -1.78429 14.3548 -3.6218 -15.6441 3.56546 21.4407 -0.045508 -2.94528 10.5177 -7.67157 5.86532 0 0 -73.3512 50.3643 27.2071 30.0831 0 -2.84217e-014 43.1389 -35.8496 -63.4145 21.3133 -2.84217e-014 0 -20.6849 -8.61422 -6.73901 -3.55605 21.4407 -0.045508 6.20555 9.65757 -3.8306 -5.86532 -1.42109e-014 1.42109e-014 34.2699 60.4253 14.4161 -30.0831 -1.42109e-014 1.42109e-014 -23.6434 -32.4861 92.6322 -21.3133 0 0 -2.37465 -8.96356 6.86169 8.92144 0 7.10543e-015 6.08202 -24.9242 -5.05498 2.84217e-014 -39.6329 1.42109e-014 -0.406651 14.0582 6.07767 2.84217e-014 -38.0584 0 -23.7517 12.5726 7.31824 2.84217e-014 -5.79894 13.3822 4.96962e-016 -7.95139e-016 1.59028e-015 -8.92144 7.10543e-015 0 2.76906 20.676 -4.37977 0 -39.6329 7.10543e-015 2.48227 27.7335 0.052414 -2.84217e-014 -38.0584 -7.10543e-015 2.16067 19.1826 -7.22992 0 -5.79894 13.3822 -7.95139e-016 6.36111e-015 7.95139e-016 
0 0 0 0 0 -0 -151.708 78.6988 -62.8946 -8.71225 -4.72082 -178.105 0 7.31558 0 -6.02801 -4.47911 5.09394 0 21.7428 0 1.00411 1.5498 5.31639 -2.84217e-014 21.6535 1.9685 -4.49797 14.9047 -17.3134 0 12.49 -1.78429 14.7026 -3.24919 -15.5267 3.56546 21.4407 -0.045508 -2.8748 10.1383 -7.64398 5.86532 0 0 -73.031 50.4052 27.0999 30.0831 0 2.84217e-014 43.0591 -35.6023 -63.2172 21.3133 0 0 -20.6559 -8.49278 -6.70975 -3.55605 21.4407 -0.045508 6.20258 9.71876 -3.96571 -5.86532 -1.42109e-014 -1.42109e-014 34.4665 60.4685 14.3108 -30.0831 0 0 -23.1916 -32.2413 92.7347 -21.3133 1.42109e-014 0 -2.59032 -9.15914 7.0047 8.92144 -7.10543e-015 -7.10543e-015 6.22983 -24.7842 -4.66763 2.84217e-014 -39.6329 7.10543e-015 -0.358095 14.1799 6.04902 0 -38.0584 0 -24.4417 13.1216 7.58343 0 -5.79894 13.3822 -7.95139e-016 0 1.59028e-015 -8.92144 -1.42109e-014 -7.10543e-015 2.85019 20.3661 -4.27877 0 -39.6329 0 2.51158 29.1774 -0.400675 2.84217e-014 -38.0584 5.32907e-015 2.21428 18.5241 -7.49 0 -5.79894 13.3822 -1.59028e-015 0 7.95139e-016 
0 0 0 0 0 -0 -151.815 78.5247 -63.7222 -8.59424 -4.67972 -178.28 0 7.31558 7.10543e-015 -5.98458 -4.51129 4.98769 2.84217e-014 21.7428 0 1.02805 1.52544 5.21002 2.84217e-014 21.6535 1.9685 -4.32319 14.9878 -17.2982 0 12.49 -1.78429 14.6816 -3.44868 -15.4946 3.56546 21.4407 -0.045508 -2.94234 10.2484 -7.79705 5.86532 -2.84217e-014 7.10543e-015 -72.6692 50.4298 26.9145 30.0831 0 -2.84217e-014 43.8287 -35.7411 -62.3483 21.3133 2.84217e-014 2.84217e-014 -20.6647 -8.54114 -6.97237 -3.55605 21.4407 -0.045508 6.22657 9.66127 -4.03811 -5.86532 0 1.42109e-014 35.1096 60.4931 13.6713 -30.0831 1.42109e-014 -1.42109e-014 -22.6618 -31.9998 92.9085 -21.3133 1.42109e-014 0 -2.75557 -9.41209 7.08781 8.92144 -2.13163e-014 7.10543e-015 6.35598 -24.7525 -4.20433 2.84217e-014 -39.6329 0 -0.265003 14.4869 5.85726 0 -38.0584 -1.42109e-014 -24.2788 13.4009 7.59326 0 -5.79894 13.3822 1.59028e-015 0 -3.18055e-015 -8.92144 0 0 2.92912 19.9112 -4.21111 0 -39.6329 3.55271e-015 2.52517 30.7188 -0.790542 -2.84217e-014 -38.0584 -3.55271e-015 2.64539 17.8266 -7.59421 -2.84217e-014 -5.79894 13.3822 -1.59028e-015 6.36111e-015 -7.95139e-016 
